<svg width="22" height="23" viewBox="0 0 22 23" fill="none" xmlns="http://www.w3.org/2000/svg">
<ellipse cx="11.5" cy="12" rx="8.5" ry="8" fill="white"/>
<path d="M12.5 8.14V7.64H12H10H9.5V8.14V10.64H7H6.5V11.14V13.14V13.64H7H9.5V16.14V16.64H10H12H12.5V16.14V13.64H15H15.5V13.14V11.14V10.64H15H12.5V8.14ZM4.51365 1.25721L1.44873 3.82242C0.811774 4.35552 0.729395 5.30473 1.26473 5.93966C1.79773 6.57183 2.74193 6.65353 3.37553 6.12208L6.43771 3.55358C7.07098 3.02241 7.15433 2.07869 6.62397 1.44474C6.09305 0.810123 5.14816 0.726157 4.51365 1.25721ZM20.5536 3.83267L17.4856 1.25828C16.8518 0.726389 15.9071 0.808914 15.3743 1.44091C14.8396 2.075 14.9205 3.02367 15.5564 3.55733L18.6244 6.13172C19.2582 6.66361 20.2029 6.58109 20.7357 5.94909C21.2704 5.315 21.1895 4.36633 20.5536 3.83267ZM11 2.64C5.75386 2.64 1.5 6.89386 1.5 12.14C1.5 17.3858 5.7435 21.64 11 21.64C16.2461 21.64 20.5 17.3861 20.5 12.14C20.5 6.89386 16.2461 2.64 11 2.64ZM11 18.64C7.40614 18.64 4.5 15.7339 4.5 12.14C4.5 8.54614 7.40614 5.64 11 5.64C14.5939 5.64 17.5 8.54614 17.5 12.14C17.5 15.7339 14.5939 18.64 11 18.64Z" fill="black" stroke="white"/>
</svg>
