<svg width="20" height="21" viewBox="0 0 20 21" fill="none" xmlns="http://www.w3.org/2000/svg">
<path d="M5.11639 2.1705C5.53828 1.81663 5.59381 1.18791 5.24048 0.76557C4.88677 0.342783 4.25728 0.286844 3.83456 0.640637L0.769638 3.20585C0.345031 3.56122 0.290078 4.19405 0.646992 4.61736C1.00235 5.03883 1.63183 5.09328 2.05421 4.73899L5.11639 2.1705ZM19.3535 4.6268C19.7101 4.20386 19.6559 3.57129 19.2322 3.21569L16.1642 0.641296C15.7419 0.286875 15.1119 0.341671 14.7565 0.763205C14.3999 1.18614 14.4541 1.81871 14.8778 2.17431L17.9458 4.7487C18.3681 5.10313 18.9981 5.04833 19.3535 4.6268ZM10 2.14C5.03 2.14 1 6.17 1 11.14C1 16.11 5.02 20.14 10 20.14C14.97 20.14 19 16.11 19 11.14C19 6.17 14.97 2.14 10 2.14ZM10 18.14C6.13 18.14 3 15.01 3 11.14C3 7.27 6.13 4.14 10 4.14C13.87 4.14 17 7.27 17 11.14C17 15.01 13.87 18.14 10 18.14ZM11 7.14H9V10.14H6V12.14H9V15.14H11V12.14H14V10.14H11V7.14Z" fill="#1976D2"/>
</svg>
